<svg width="25" height="19" viewBox="0 0 25 19" fill="none" xmlns="http://www.w3.org/2000/svg">
<path d="M0.5 2.61556V2C0.5 1.60218 0.658035 1.22064 0.93934 0.93934C1.22064 0.658035 1.60218 0.5 2 0.5L23 0.5C23.3978 0.5 23.7794 0.658035 24.0607 0.93934C24.342 1.22064 24.5 1.60218 24.5 2V2.61556L12.5 10.1156L0.5 2.61556ZM12.8975 11.6362C12.7783 11.7106 12.6405 11.7501 12.5 11.7501C12.3595 11.7501 12.2217 11.7106 12.1025 11.6362L0.5 4.38444V17C0.5 17.3978 0.658035 17.7794 0.93934 18.0607C1.22064 18.342 1.60218 18.5 2 18.5H23C23.3978 18.5 23.7794 18.342 24.0607 18.0607C24.342 17.7794 24.5 17.3978 24.5 17V4.38444L12.8975 11.6362Z" fill="white"/>
</svg>
