<svg width="16" height="21" viewBox="0 0 16 21" fill="none" xmlns="http://www.w3.org/2000/svg">
<path d="M8 0.5C5.879 0.502382 3.84555 1.346 2.34578 2.84578C0.846002 4.34555 0.00238211 6.379 0 8.5C0 11.755 2.363 14.458 4.866 17.319C5.658 18.225 6.478 19.162 7.208 20.11C7.30142 20.2312 7.4214 20.3293 7.55871 20.3968C7.69602 20.4644 7.84699 20.4995 8 20.4995C8.15301 20.4995 8.30398 20.4644 8.44129 20.3968C8.5786 20.3293 8.69858 20.2312 8.792 20.11C9.522 19.162 10.342 18.225 11.134 17.319C13.637 14.458 16 11.755 16 8.5C15.9976 6.379 15.154 4.34555 13.6542 2.84578C12.1544 1.346 10.121 0.502382 8 0.5ZM8 11.5C7.40666 11.5 6.82664 11.3241 6.33329 10.9944C5.83994 10.6648 5.45542 10.1962 5.22836 9.64805C5.0013 9.09987 4.94189 8.49667 5.05764 7.91473C5.1734 7.33279 5.45912 6.79824 5.87868 6.37868C6.29824 5.95912 6.83279 5.6734 7.41473 5.55764C7.99667 5.44189 8.59987 5.5013 9.14805 5.72836C9.69623 5.95542 10.1648 6.33994 10.4944 6.83329C10.8241 7.32664 11 7.90666 11 8.5C11 9.29565 10.6839 10.0587 10.1213 10.6213C9.55871 11.1839 8.79565 11.5 8 11.5Z" fill="white"/>
</svg>
