<svg width="35" height="35" viewBox="0 0 35 35" fill="none" xmlns="http://www.w3.org/2000/svg">
<path d="M17.5002 2.18457C9.05499 2.18457 2.18481 9.05502 2.18481 17.4999C2.18481 25.9451 9.05499 32.8158 17.5002 32.8158C25.9448 32.8158 32.8155 25.9451 32.8155 17.4999C32.8155 9.05502 25.9448 2.18457 17.5002 2.18457ZM21.8287 11.8528C21.8287 11.9254 21.7999 11.9949 21.7486 12.0462C21.6974 12.0975 21.6278 12.1263 21.5553 12.1263L19.8143 12.1274C18.6656 12.1274 18.4556 12.5747 18.4556 13.4558V15.2834H21.4415C21.52 15.2834 21.5949 15.3173 21.6466 15.3764C21.6983 15.4355 21.7224 15.5139 21.7128 15.5919L21.2876 18.8822C21.2791 18.9481 21.2468 19.0086 21.1969 19.0525C21.147 19.0964 21.0828 19.1206 21.0163 19.1206H18.4556V27.2907C18.4556 27.3632 18.4268 27.4328 18.3755 27.4841C18.3242 27.5353 18.2547 27.5641 18.1821 27.5641H14.7849C14.7124 27.5641 14.6428 27.5353 14.5916 27.4841C14.5403 27.4328 14.5115 27.3632 14.5115 27.2907V19.1206H11.9425C11.87 19.1206 11.8004 19.0918 11.7492 19.0405C11.6979 18.9892 11.6691 18.9197 11.6691 18.8472V15.5569C11.6691 15.4843 11.6979 15.4148 11.7492 15.3635C11.8004 15.3122 11.87 15.2834 11.9425 15.2834H14.5115V13.1301C14.5115 10.2781 16.2374 8.50677 19.0164 8.50677C20.2111 8.50677 21.2668 8.59564 21.5911 8.63857C21.6568 8.64725 21.7172 8.67952 21.7609 8.72937C21.8046 8.77922 21.8287 8.84325 21.8287 8.90954V11.8528Z" fill="white"/>
</svg>
