<svg width="35" height="35" viewBox="0 0 35 35" fill="none" xmlns="http://www.w3.org/2000/svg">
<g clip-path="url(#clip0_56_805)">
<path d="M24.6058 12.1245C24.454 11.7312 24.2214 11.3741 23.9231 11.0762C23.6249 10.7782 23.2675 10.546 22.874 10.3946C22.3323 10.1939 21.7601 10.0879 21.1824 10.0811C20.2217 10.0373 19.9337 10.0264 17.5001 10.0264C15.0665 10.0264 14.7785 10.0373 13.8178 10.0811C13.2395 10.0877 12.6666 10.1937 12.1243 10.3946C11.731 10.5465 11.3739 10.779 11.0759 11.0773C10.778 11.3755 10.5458 11.7329 10.3944 12.1264C10.1937 12.6681 10.0876 13.2403 10.0808 13.818C10.0371 14.7787 10.0261 15.0667 10.0261 17.5003C10.0261 19.9339 10.0371 20.2219 10.0808 21.1826C10.0874 21.7609 10.1935 22.3338 10.3944 22.8761C10.5462 23.2694 10.7788 23.6265 11.077 23.9245C11.3753 24.2224 11.7327 24.4546 12.1261 24.6061C12.6679 24.8067 13.2401 24.9128 13.8178 24.9196C14.7785 24.9633 15.0665 24.9743 17.5001 24.9743C19.9337 24.9743 20.2217 24.9633 21.1824 24.9196C21.7607 24.913 22.3335 24.8069 22.8759 24.6061C23.2692 24.4542 23.6263 24.2216 23.9242 23.9234C24.2222 23.6251 24.4544 23.2677 24.6058 22.8743C24.8065 22.3325 24.9125 21.7603 24.9194 21.1826C24.9631 20.2219 24.974 19.9339 24.974 17.5003C24.974 15.0667 24.9631 14.7787 24.9194 13.818C24.9127 13.2397 24.8067 12.6669 24.6058 12.1245ZM17.5001 22.1816C16.5742 22.1816 15.6691 21.907 14.8993 21.3926C14.1295 20.8783 13.5295 20.1471 13.1752 19.2918C12.8209 18.4364 12.7282 17.4951 12.9088 16.5871C13.0894 15.679 13.5353 14.8449 14.1899 14.1902C14.8446 13.5355 15.6787 13.0897 16.5868 12.909C17.4949 12.7284 18.4361 12.8211 19.2915 13.1754C20.1469 13.5297 20.878 14.1297 21.3924 14.8996C21.9068 15.6694 22.1813 16.5745 22.1813 17.5003C22.1813 18.7419 21.6881 19.9326 20.8102 20.8105C19.9323 21.6884 18.7416 22.1816 17.5001 22.1816ZM22.3654 13.7287C22.1491 13.7287 21.9377 13.6646 21.7578 13.5444C21.5779 13.4242 21.4377 13.2534 21.355 13.0535C21.2722 12.8537 21.2505 12.6337 21.2927 12.4216C21.3349 12.2094 21.4391 12.0145 21.592 11.8616C21.745 11.7086 21.9399 11.6044 22.1521 11.5622C22.3642 11.52 22.5841 11.5417 22.784 11.6245C22.9839 11.7073 23.1547 11.8474 23.2749 12.0273C23.395 12.2072 23.4592 12.4186 23.4592 12.635C23.4592 12.925 23.344 13.2032 23.1388 13.4084C22.9337 13.6135 22.6555 13.7287 22.3654 13.7287Z" fill="white"/>
<path d="M17.5 20.539C19.1783 20.539 20.5388 19.1785 20.5388 17.5002C20.5388 15.8219 19.1783 14.4614 17.5 14.4614C15.8217 14.4614 14.4612 15.8219 14.4612 17.5002C14.4612 19.1785 15.8217 20.539 17.5 20.539Z" fill="white"/>
<path d="M17.5 0.000244141C14.0388 0.000244141 10.6554 1.0266 7.77753 2.94953C4.89967 4.87245 2.65665 7.60558 1.33212 10.8033C0.00758244 14.001 -0.338976 17.5197 0.336266 20.9143C1.01151 24.309 2.67822 27.4272 5.12564 29.8746C7.57306 32.322 10.6913 33.9887 14.0859 34.664C17.4806 35.3392 20.9993 34.9927 24.197 33.6681C27.3947 32.3436 30.1278 30.1006 32.0507 27.2227C33.9736 24.3449 35 20.9614 35 17.5002C35 12.859 33.1563 8.40776 29.8744 5.12588C26.5925 1.84399 22.1413 0.000244141 17.5 0.000244141ZM26.5599 21.2591C26.5443 22.0149 26.4007 22.7625 26.1352 23.4703C25.9011 24.0756 25.5431 24.6254 25.0841 25.0844C24.6252 25.5433 24.0754 25.9013 23.4701 26.1354C22.7623 26.4009 22.0146 26.5445 21.2589 26.5601C20.2854 26.6039 19.9755 26.6148 17.5 26.6148C15.0245 26.6148 14.7146 26.6039 13.7412 26.5601C12.9854 26.5445 12.2377 26.4009 11.53 26.1354C10.9246 25.9013 10.3748 25.5433 9.9159 25.0844C9.45695 24.6254 9.09896 24.0756 8.86485 23.4703C8.59936 22.7625 8.45575 22.0149 8.44011 21.2591C8.39636 20.2857 8.38542 19.9758 8.38542 17.5002C8.38542 15.0247 8.39636 14.7148 8.44011 13.7414C8.45575 12.9856 8.59936 12.238 8.86485 11.5302C9.09896 10.9248 9.45695 10.3751 9.9159 9.91613C10.3748 9.45719 10.9246 9.09919 11.53 8.86509C12.2377 8.5996 12.9854 8.45599 13.7412 8.44035C14.7146 8.3966 15.0245 8.38566 17.5 8.38566C19.9755 8.38566 20.2854 8.3966 21.2589 8.44035C22.0146 8.45599 22.7623 8.5996 23.4701 8.86509C24.0754 9.09919 24.6252 9.45719 25.0841 9.91613C25.5431 10.3751 25.9011 10.9248 26.1352 11.5302C26.4007 12.238 26.5443 12.9856 26.5599 13.7414C26.6037 14.7148 26.6146 15.0247 26.6146 17.5002C26.6146 19.9758 26.6037 20.2857 26.5599 21.2591Z" fill="white"/>
</g>
<defs>
<clipPath id="clip0_56_805">
<rect width="35" height="35" fill="white" transform="translate(0 0.000244141)"/>
</clipPath>
</defs>
</svg>
