<svg width="35" height="35" viewBox="0 0 35 35" fill="none" xmlns="http://www.w3.org/2000/svg">
<path d="M19.3724 15.4598H19.3969V15.4213L19.3724 15.4598ZM19.3724 15.4598H19.3969V15.4213L19.3724 15.4598ZM19.3724 15.4598H19.3969V15.4213L19.3724 15.4598ZM19.3724 15.4598H19.3969V15.4213L19.3724 15.4598ZM19.3724 15.4598H19.3969V15.4213L19.3724 15.4598ZM19.3724 15.4598H19.3969V15.4213L19.3724 15.4598ZM19.3724 15.4598H19.3969V15.4213L19.3724 15.4598ZM19.3724 15.4598H19.3969V15.4213L19.3724 15.4598ZM19.3724 15.4598H19.3969V15.4213L19.3724 15.4598ZM19.3724 15.4598H19.3969V15.4213L19.3724 15.4598ZM19.3724 15.4598H19.3969V15.4213L19.3724 15.4598ZM19.3724 15.4598H19.3969V15.4213L19.3724 15.4598ZM19.3724 15.4598H19.3969V15.4213L19.3724 15.4598ZM19.3724 15.4598H19.3969V15.4213L19.3724 15.4598ZM19.3724 15.4598H19.3969V15.4213L19.3724 15.4598ZM19.3724 15.4598H19.3969V15.4213L19.3724 15.4598ZM17.7799 1.31982C14.6185 1.31982 11.528 2.2573 8.8994 4.0137C6.27077 5.7701 4.22199 8.26653 3.01216 11.1873C1.80234 14.1081 1.48579 17.3221 2.10256 20.4227C2.71932 23.5234 4.2417 26.3716 6.47717 28.6071C8.71264 30.8425 11.5608 32.3649 14.6615 32.9817C17.7622 33.5984 20.9761 33.2819 23.8969 32.0721C26.8177 30.8622 29.3141 28.8135 31.0705 26.1848C32.8269 23.5562 33.7644 20.4658 33.7644 17.3043C33.7598 13.0664 32.0742 9.00336 29.0775 6.00669C26.0809 3.01002 22.0178 1.32446 17.7799 1.31982ZM13.7829 24.5003C13.782 24.5712 13.7532 24.6388 13.7028 24.6886C13.6523 24.7384 13.5843 24.7663 13.5134 24.7663H10.4334C10.3629 24.7663 10.2952 24.7383 10.2453 24.6884C10.1954 24.6385 10.1674 24.5709 10.1674 24.5003V14.1508C10.167 14.1156 10.1735 14.0806 10.1867 14.048C10.1998 14.0153 10.2193 13.9855 10.2441 13.9605C10.2688 13.9354 10.2983 13.9155 10.3308 13.9019C10.3633 13.8883 10.3982 13.8813 10.4334 13.8813H13.5134C13.5488 13.8813 13.5839 13.8883 13.6166 13.9018C13.6492 13.9154 13.679 13.9352 13.704 13.9603C13.729 13.9853 13.7489 14.015 13.7624 14.0477C13.7759 14.0804 13.7829 14.1154 13.7829 14.1508V24.5003ZM11.8649 12.4988C11.4821 12.4988 11.1079 12.3853 10.7896 12.1726C10.4713 11.96 10.2232 11.6577 10.0767 11.304C9.93025 10.9503 9.89193 10.5612 9.96661 10.1857C10.0413 9.81028 10.2256 9.4654 10.4963 9.19472C10.767 8.92403 11.1119 8.7397 11.4873 8.66501C11.8628 8.59033 12.2519 8.62866 12.6056 8.77516C12.9593 8.92165 13.2616 9.16973 13.4742 9.48802C13.6869 9.80631 13.8004 10.1805 13.8004 10.5633C13.8009 10.8176 13.7511 11.0695 13.654 11.3046C13.5569 11.5396 13.4144 11.7531 13.2346 11.933C13.0547 12.1128 12.8412 12.2553 12.6061 12.3524C12.3711 12.4495 12.1192 12.4993 11.8649 12.4988ZM26.8169 24.5003C26.816 24.5712 26.7872 24.6388 26.7368 24.6886C26.6863 24.7384 26.6183 24.7663 26.5474 24.7663H23.4674C23.4325 24.7663 23.3979 24.7594 23.3656 24.7461C23.3334 24.7327 23.304 24.7131 23.2793 24.6884C23.2546 24.6637 23.235 24.6344 23.2217 24.6021C23.2083 24.5698 23.2014 24.5353 23.2014 24.5003V18.9388C23.2014 17.4758 22.6799 16.4888 21.3709 16.4888C20.963 16.4911 20.5658 16.6195 20.2337 16.8563C19.9016 17.0932 19.6509 17.4269 19.5159 17.8118C19.4236 18.0963 19.3833 18.3951 19.3969 18.6938V24.5003C19.3969 24.5718 19.3685 24.6403 19.318 24.6909C19.2674 24.7414 19.1989 24.7698 19.1274 24.7698H16.0474C16.0122 24.7698 15.9773 24.7628 15.9448 24.7492C15.9123 24.7357 15.8828 24.7158 15.8581 24.6907C15.8333 24.6656 15.8138 24.6359 15.8007 24.6032C15.7875 24.5705 15.781 24.5355 15.7814 24.5003C15.7814 23.0233 15.8199 15.8518 15.7814 14.1648C15.781 14.1296 15.7875 14.0946 15.8007 14.062C15.8138 14.0293 15.8333 13.9995 15.8581 13.9745C15.8828 13.9494 15.9123 13.9295 15.9448 13.9159C15.9773 13.9023 16.0122 13.8953 16.0474 13.8953H19.1204C19.1559 13.8949 19.1912 13.9015 19.2241 13.9149C19.257 13.9283 19.2869 13.9481 19.312 13.9732C19.3372 13.9983 19.357 14.0282 19.3704 14.0611C19.3837 14.094 19.3904 14.1293 19.3899 14.1648V15.4353C19.7173 14.867 20.1941 14.3992 20.7685 14.0827C21.3429 13.7662 21.9931 13.613 22.6484 13.6398C25.0249 13.6398 26.8099 15.1938 26.8099 18.5398L26.8169 24.5003ZM19.3969 15.4703V15.4318L19.3724 15.4703H19.3969ZM19.3724 15.4703H19.3969V15.4318L19.3724 15.4703ZM19.3724 15.4703H19.3969V15.4318L19.3724 15.4703ZM19.3724 15.4703H19.3969V15.4318L19.3724 15.4703ZM19.3724 15.4703H19.3969V15.4318L19.3724 15.4703ZM19.3724 15.4703H19.3969V15.4318L19.3724 15.4703ZM19.3724 15.4703H19.3969V15.4318L19.3724 15.4703ZM19.3724 15.4703H19.3969V15.4318L19.3724 15.4703ZM19.3724 15.4703H19.3969V15.4318L19.3724 15.4703ZM19.3724 15.4703H19.3969V15.4318L19.3724 15.4703ZM19.3724 15.4703H19.3969V15.4318L19.3724 15.4703ZM19.3724 15.4703H19.3969V15.4318L19.3724 15.4703ZM19.3724 15.4703H19.3969V15.4318L19.3724 15.4703ZM19.3724 15.4703H19.3969V15.4318L19.3724 15.4703ZM19.3724 15.4703H19.3969V15.4318L19.3724 15.4703Z" fill="white"/>
</svg>
