<svg width="19" height="19" viewBox="0 0 19 19" fill="none" xmlns="http://www.w3.org/2000/svg">
<path d="M16.73 12.76L14.19 12.47C13.58 12.4 12.98 12.61 12.55 13.04L10.71 14.88C7.88004 13.44 5.56004 11.13 4.12004 8.29001L5.97004 6.44001C6.40004 6.01001 6.61004 5.41001 6.54004 4.80001L6.25004 2.28001C6.13004 1.27001 5.28004 0.51001 4.26004 0.51001H2.53004C1.40004 0.51001 0.460041 1.45001 0.530041 2.58001C1.06004 11.12 7.89004 17.94 16.42 18.47C17.55 18.54 18.49 17.6 18.49 16.47V14.74C18.5 13.73 17.74 12.88 16.73 12.76Z" fill="white"/>
</svg>
